<?xml version="1.0" encoding="UTF-8" standalone="no"?>
<svg
   width="785.25946"
   height="437.46213"
   version="1.1"
   id="svg78"
   sodipodi:docname="logo.svg"
   inkscape:version="1.2.2 (b0a8486541, 2022-12-01)"
   xmlns:inkscape="http://www.inkscape.org/namespaces/inkscape"
   xmlns:sodipodi="http://sodipodi.sourceforge.net/DTD/sodipodi-0.dtd"
   xmlns="http://www.w3.org/2000/svg"
   xmlns:svg="http://www.w3.org/2000/svg">
  <sodipodi:namedview
     id="namedview80"
     pagecolor="#ffffff"
     bordercolor="#666666"
     borderopacity="1.0"
     inkscape:showpageshadow="2"
     inkscape:pageopacity="0.0"
     inkscape:pagecheckerboard="0"
     inkscape:deskcolor="#d1d1d1"
     showgrid="false"
     inkscape:zoom="1.007536"
     inkscape:cx="435.71644"
     inkscape:cy="-276.91318"
     inkscape:window-width="1916"
     inkscape:window-height="2115"
     inkscape:window-x="5760"
     inkscape:window-y="0"
     inkscape:window-maximized="1"
     inkscape:current-layer="svg78" />
  <defs
     id="defs62">
    <linearGradient
       id="A"
       x1="385.60999"
       y1="411.17999"
       x2="385.89899"
       y2="330.41599"
       gradientUnits="userSpaceOnUse"
       gradientTransform="translate(7.9288274,7.4916077)">
      <stop
         offset="0"
         stop-color="#434343"
         stop-opacity=".996"
         id="stop57" />
      <stop
         offset="1"
         stop-opacity=".996"
         id="stop59" />
    </linearGradient>
  </defs>
  <path
     d="m 500.38984,0.00560768 c -36.686,0.246 -73.426,5.86600002 -108.23,17.57600032 -44.523,-13.2970003 -91.344,-19.1160003 -137.758,-16.4170003 -44.058,2.555 -87.833,12.7120003 -127.954,31.2450003 -28.781003,13.332 -55.740003,31.079 -78.037003,53.746 -16.403,16.719002 -30.17201,36.285002 -38.8490096,58.120002 -7.637,19.282 -11.046,40.353 -8.958,61.035 1.918,19.557 8.534,38.524 18.4939996,55.42 12.75101,21.795 30.48701,40.312 50.15001,55.99 l 4.499,3.516 c -12.278,13.648 -25.231,26.663 -39.289,38.453 -7.677,6.485 -15.80201,12.496 -24.08801,18.243 l -3.2149996,2.251 13.1989996,47.594 c 33.38901,0.601 66.78801,-3.684 99.139013,-11.866 28.657,-7.231 56.592,-17.305 83.322,-29.907 5.105,-2.536 9.92,-5.768 15.424,-7.414 16.584,2.664 33.372,3.981 50.165,4.135 22.463,0.208 44.92,-1.571 67.133,-4.862 -0.021,4.107 -0.145,8.215 0.014,12.32 0.929,0.296 0.678,0.615 -0.087,0.945 l -2.104,1.276 c 1.973,5.359 3.936,10.97 7.965,15.179 4.095,4.531 9.435,7.781 15.08,10.016 5.369,7.746 12.574,14.497 21.395,18.074 9.935,4.112 21.529,3.572 31.237,-0.932 8.411,-3.769 15.679,-10.066 20.548,-17.898 6.721,-2.759 13.2,-6.837 17.333,-12.95 0.969,-1.444 2.013,-3.005 2.139,-4.779 l 0.5,-17.505 c -0.846,-0.065 -0.352,-0.681 -0.467,-1.309 l 0.008,-2.992 c 22.759,3.193 45.718,5.434 68.725,5.094 15.973,-0.19 31.929,-1.463 47.743,-3.709 4.049,1.033 7.968,2.518 11.785,4.207 l 2.78,1.279 c 9.082,4.333 17.874,9.289 27.233,13.024 a 503.63,503.63 0 0 0 22.052,8.048 c 23.686,8.011 48.043,14.083 72.777,17.787 14.015,2.26 28.176,3.838 42.387,3.856 l 19.351,0.449 c 4.449,-15.452 8.81,-30.937 12.494,-46.594 -11.239,-9.889 -23.714,-18.249 -35.003,-28.076 -10.594,-9.257 -20.426,-19.542 -29.698,-30.183 l -1.267,-1.456 c 19.306,-16.113 37.014,-34.425 50.732,-55.584 11.36,-17.581 19.747,-37.327 22.788,-58.12 2.966,-20.062 0.749,-40.836 -6.247,-59.863 -7.13,-19.675 -18.823,-37.483 -32.921,-52.861002 -18.447,-20.194 -40.833,-36.491 -64.735,-49.637 -31.685,-17.395 -66.234,-29.296 -101.621,-36.4390003 a 387.06,387.06 0 0 0 -78.063,-7.52500002 z"
     fill="#ffffff"
     id="path64" />
  <path
     d="m 85.530837,319.02861 c -28.781,32.934 -50.118,50.272 -69.12501,63.439 l 10.10201,36.336 c 64.783,0.222 125.259003,-19.089 169.464003,-39.396 6.992,-3.042 14.496,-8.529 22,-9.991 44.617,7.621 91.952,4.259 129.71,-2.549 l 1.271,-35.153 c 11.337,-0.623 72.406,-0.328 85.698,-0.327 0.035,16.133 0.985,22.122 1.081,34.969 36.436,5.259 75.766,11.162 130.239,3.202 14.74,3.172 29.858,13.513 44,19.07 27.356,10.749 55.997,19.225 85,24.122 15.489,2.615 31.279,5.006 47,5.082 l 15.967,0.369 c 3.374,-11.722 6.887,-24.35 9.553,-35.553 -7.011,-6 -16.689,-12.918 -21.52,-16.901 -17.348,-13.395 -32.172,-29.262 -46.92,-46.719 223.226,-177.718 -79.433,-371.639002 -306.741,-293.058002 -269.397,-82.157 -514.03401,144.061002 -306.779003,293.058002 M 341.06284,49.417608 c -58.791,31.539 -101.527,89.074002 -97.856,148.949002 5.574,60.531 51.203,111.38 97.925,134.343 -43.004,9.089 -86.085,6.167 -128.736,1.199 l -15.424,7.676 c -37.855,19.924 -79.827,30.511 -121.000003,38.247 l 20.83,-23 38.649003,-46.882 C 70.890837,276.36461 43.047837,227.72561 43.014837,190.93061 42.926837,93.686608 196.16384,19.995608 341.06284,49.418608 m 307.909,259.413002 c 16.828,27.971 44.194,54.69 59.599,70.96 -47.686,-7.428 -89.726,-20.723 -136.244,-46.348 -46.546,7.767 -88.741,5.883 -129.355,-0.612 v 0 c 113.62,-62.919 118.179,-165.368 67.301,-227.268 -17.621,-21.438002 -35.537,-40.377002 -67.301,-56.732002 100.782,-30.224 231.089,19.344 276.104,78.000002 42.536,56.889 18.824,117.336 -29.104,156.13 -11.659,10.021 -25.988,21.545 -41,25.87 m -254.95,-234.550002 c 65.266,3.076 111.497,54.638002 113.89,110.552002 2.663,62.23 -48.499,121.419 -116.217,121.007 -78.68,-0.479 -115.026,-60.441 -115.041,-114.558 -0.015,-55.241 40.844,-112.976002 117.368,-117.001002 m -55.05,89.550002 h 41 c 0.128,-6.026 1.269,-13.149 7.665,-15.536 6.657,-2.484 16.08,3.093 13.337,11.817 -2.333,10.279 -18.706,10.469 -24.898,17.823 -8.865,8.909 -7.105,23.398 -7.105,34.896 17.856,-5.651 27.386,-5.538 44.226,0 -0.879,-11.264 1.028,-12.903 10.605,-17.901 25.232,-13.167 24.618,-41.676 15.561,-60.099 -16.144,-31.7 -59.867,-36.226002 -84.823,-12.187 -11.371,10.953 -15.567,25.935 -15.569,41.187 m 48,53.465 c -35.996,5.63 -28.305,62.14 11,55.067 34.882,-7.922 27.518,-58.211 -11,-55.067"
     id="path70" />
  <path
     d="m 394.02084,74.282608 c -76.524,4.025 -117.382,61.759002 -117.367,117.000002 0.015,54.117 36.361,114.079 115.041,114.559 67.718,0.412 118.88,-58.776 116.217,-121.006 -2.393,-55.914 -48.625,-107.476002 -113.891,-110.553002 z m 0.17,33.098002 c 18.285,0.388 36.093,9.62 45.174,27.451 9.056,18.423 9.67,46.932 -15.562,60.1 -9.576,4.997 -11.482,6.636 -10.604,17.9 -16.84,-5.538 -26.371,-5.651 -44.227,0 0,-11.498 -1.76,-25.986 7.105,-34.895 6.192,-7.354 22.563,-7.545 24.896,-17.824 2.742,-8.725 -6.679,-14.3 -13.336,-11.816 -6.396,2.387 -7.538,9.509 -7.666,15.535 h -41 c 0.002,-15.252 4.197,-30.234 15.568,-41.187 10.918,-10.517 25.429,-15.565 39.65,-15.264 z m -7.219,109.916 c 38.518,-3.144 45.882,47.146 11,55.068 -39.305,7.073 -46.996,-49.439 -11,-55.068 z"
     fill="#ffcc00"
     stroke="#000000"
     stroke-opacity="0"
     id="path72" />
  <path
     d="m 424.05184,409.43361 c 9.272,-3.41 14.3,-7.503 17.018,-12.237 l 0.292,-11.2 c -3.716,-1.233 -5.616,-7.646 -0.257,-10.387 v -8.39 c -6.08,-2.924 -2.055,-9.777 0.037,-9.484 l -0.065,-7.425 c -3.175,-0.566 -5.077,-6.095 0.237,-8.415 -0.087,-1.096 0.054,-3.378 -0.002,-6.772 0.309,-4.697 0.169,-4.639 0.019,-9.715 l -97.495,-0.264 c 0.105,4.319 0.174,3.165 -0.056,7.362 6.08,3.437 1.236,9.887 -0.404,9.133 0.094,3.116 0.309,5.658 0.2,8.833 4.148,1.594 4.116,7.016 0.366,8.467 0.064,3.001 -0.076,2.791 -0.081,8.232 2.539,0.918 6.116,6.92 -0.319,9.646 0.039,2.713 -0.124,4.489 -0.072,7.573 3.539,1.852 6.407,6.557 -0.226,10.373 1.739,4.561 6.227,11.074 18.348,15.235 21.102,32.832 52.752,18.246 62.459,-0.566 z"
     fill="url(#A)"
     id="path74"
     style="fill:url(#A)" />
  <path
     d="m 430.09984,336.82661 c -22.25,13.942 -53.057,13.386 -78.128,7.005 l 1,-4 c 32.384,7.508 51.843,5.64 77.128,-3.005 m 1.038,16.336 c -20.119,13.669 -52.802,15.462 -79.167,7.669 l 1,-4 c 28.821,6.402 49.85,7.872 78.167,-3.669 m 0.221,17.19 c -22.596,13.888 -47.583,14.262 -79.387,8.479 l 1,-5 c 28.57,8.387 54.581,6.121 78.387,-3.479 m 0.399,16.855 v 0 c -24.666,16.006 -52.921,13.535 -79.786,8.624 l 1,-5 c 26.002,6.038 53.231,7.928 78.786,-3.624 z"
     fill="#ffffff"
     id="path76" />
</svg>
